<svg xmlns="http://www.w3.org/2000/svg" width="51.523" height="51.528" viewBox="0 0 51.523 51.528"><defs><style>.a{fill:#5a5a5a;}</style></defs><g transform="translate(718.139 3914.274)"><path class="a" d="M-692.374-3914.274a25.765,25.765,0,0,0-25.765,25.764,25.764,25.764,0,0,0,7.465,18.136l1.041.994a25.76,25.76,0,0,0,34.512,0l1.041-.994a25.763,25.763,0,0,0-.164-36.435,25.763,25.763,0,0,0-18.136-7.465Zm0,7.819a8.28,8.28,0,0,1,8.278,8.28,8.28,8.28,0,0,1-8.28,8.278,8.279,8.279,0,0,1-8.278-8.279,8.279,8.279,0,0,1,8.279-8.279Zm15.932,32.333h-2.96v-3.885a8.266,8.266,0,0,0-5.165-7.63l-3.974,3.974a5.421,5.421,0,0,1-7.668,0h0l-3.974-3.974a8.264,8.264,0,0,0-5.165,7.63v3.885h-2.96v-3.885a11.226,11.226,0,0,1,7.416-10.527,2.442,2.442,0,0,1,.829-.145,2.476,2.476,0,0,1,1.748.725l4.2,4.2a2.461,2.461,0,0,0,3.482,0h0l4.2-4.2a2.474,2.474,0,0,1,1.748-.725,2.445,2.445,0,0,1,.829.145,11.229,11.229,0,0,1,7.416,10.527Z"/><path class="a" d="M-692.374-3892.857a5.32,5.32,0,0,0,5.321-5.319,5.321,5.321,0,0,0-5.319-5.321,5.32,5.32,0,0,0-5.321,5.319v0A5.319,5.319,0,0,0-692.374-3892.857Z"/></g></svg>